<?xml version="1.0" encoding="utf-8"?>
<!-- Generator: Adobe Illustrator 24.3.0, SVG Export Plug-In . SVG Version: 6.00 Build 0)  -->
<svg version="1.1" id="Layer_1" xmlns="http://www.w3.org/2000/svg" xmlns:xlink="http://www.w3.org/1999/xlink" x="0px" y="0px"
	 viewBox="0 0 24 24" style="enable-background:new 0 0 24 24;" xml:space="preserve">
<style type="text/css">
	.st0{fill:#16C79A;}
</style>
<path class="st0" d="M0,17.7l2,3.5h0c0.4,0.8,1.2,1.3,2.2,1.3h13.5l-2.8-4.8C14.9,17.7,0,17.7,0,17.7z M24,17.7
	c0-0.5-0.1-0.9-0.4-1.3L15.7,2.7c-0.4-0.8-1.2-1.3-2.1-1.3H9.4l12.2,21.1l1.9-3.3C23.9,18.6,24,18.3,24,17.7z M12.9,14.3L7.4,4.9
	L2,14.3C2,14.3,12.9,14.3,12.9,14.3z"/>
</svg>
