<?xml version="1.0" encoding="utf-8"?>
<!-- Generator: Adobe Illustrator 24.3.0, SVG Export Plug-In . SVG Version: 6.00 Build 0)  -->
<svg version="1.1" id="Layer_1" xmlns="http://www.w3.org/2000/svg" xmlns:xlink="http://www.w3.org/1999/xlink" x="0px" y="0px"
	 viewBox="0 0 24 24" style="enable-background:new 0 0 24 24;" xml:space="preserve">
<style type="text/css">
	.st0{fill:#16C79A;}
</style>
<path class="st0" d="M3.1,1.3C2.1,2,0,4.3,0,4.9v1c0,1.3,1.2,2.4,2.3,2.4c1.3,0,2.4-1.1,2.4-2.4c0,1.3,1.1,2.4,2.4,2.4
	c1.3,0,2.4-1.1,2.4-2.4c0,1.3,1.1,2.4,2.5,2.4h0c1.3,0,2.5-1.1,2.5-2.4c0,1.3,1,2.4,2.4,2.4c1.3,0,2.4-1.1,2.4-2.4
	c0,1.3,1.1,2.4,2.4,2.4C22.8,8.4,24,7.3,24,6v-1c0-0.6-2.1-3-3.1-3.6c-3.3-0.1-5.5-0.1-8.9-0.1C8.6,1.2,4.1,1.3,3.1,1.3z M9.5,7.8
	C9.4,8,9.2,8.2,9,8.4C8.5,8.9,7.8,9.2,7.1,9.2c-0.7,0-1.4-0.3-2-0.8C5,8.2,4.8,8,4.7,7.8C4.6,8,4.4,8.2,4.2,8.4
	C3.7,8.9,3,9.2,2.3,9.2c-0.1,0-0.2,0-0.3-0.1c-0.1,1.1-0.2,2.2-0.2,2.9v0l0,1.2c0,2.3-0.2,7.6,1,8.8c2,0.5,5.5,0.7,9.1,0.7
	c3.6,0,7.2-0.2,9.1-0.7c1.3-1.3,1-6.5,1-8.8l0-1.2v0c0-0.8-0.1-1.8-0.2-2.9c-0.1,0-0.2,0.1-0.3,0.1c-0.7,0-1.4-0.3-2-0.8
	c-0.2-0.2-0.4-0.4-0.5-0.6C19.2,8,19,8.2,18.9,8.4c-0.5,0.5-1.2,0.8-2,0.8c-0.8,0-1.4-0.3-1.9-0.8c-0.2-0.2-0.3-0.4-0.5-0.6
	C14.4,8,14.2,8.2,14,8.4c-0.5,0.5-1.2,0.8-1.9,0.8h-0.2c-0.7,0-1.4-0.3-1.9-0.8C9.8,8.2,9.6,8,9.5,7.8L9.5,7.8z M7.5,10.4L7.5,10.4
	c0.8,0,1.5,0,2.4,1c0.7-0.1,1.4-0.1,2.1-0.1c0.7,0,1.4,0,2.1,0.1c0.9-1,1.6-0.9,2.4-1c0.4,0,1.9,0,2.9,2.9l1.1,4
	c0.8,3-0.3,3.1-1.6,3.1c-2-0.1-3.2-1.5-3.2-3c-1.1,0.2-2.4,0.3-3.7,0.3c-1.3,0-2.6-0.1-3.7-0.3c0,1.5-1.1,3-3.2,3
	c-1.4,0-2.5-0.1-1.6-3.1l1.1-4C5.6,10.4,7.1,10.4,7.5,10.4L7.5,10.4z M12,12.7c0,0-2.1,2-2.5,2.7l1.4-0.1v1.2c0,0.1,0.6,0,1.1,0
	c0.6,0,1.1,0,1.1,0v-1.2l1.4,0.1C14.1,14.7,12,12.7,12,12.7L12,12.7z"/>
</svg>
