<?xml version="1.0" encoding="utf-8"?>
<!-- Generator: Adobe Illustrator 24.3.0, SVG Export Plug-In . SVG Version: 6.00 Build 0)  -->
<svg version="1.1" id="Layer_1" xmlns="http://www.w3.org/2000/svg" xmlns:xlink="http://www.w3.org/1999/xlink" x="0px" y="0px"
	 viewBox="0 0 24 24" style="enable-background:new 0 0 24 24;" xml:space="preserve">
<style type="text/css">
	.st0{fill:none;}
	.st1{fill-rule:evenodd;clip-rule:evenodd;fill:#44B494;}
</style>
<path class="st0" d="M0,0"/>
<g id="Livello_x0020_1">
	<path class="st1" d="M23.9,5.5C23,5.8,22,6,21.1,6.1c1-0.5,1.8-1.4,2.1-2.4c-0.9,0.5-2,0.9-3.1,1.1c-0.9-0.8-2.2-1.4-3.6-1.4
		c-2.7,0-4.9,1.9-4.9,4.3c0,0.3,0,0.7,0.1,1c-4-0.2-7.6-1.9-10-4.5C1.4,4.9,1.1,5.6,1.1,6.4C1.1,7.9,2,9.2,3.3,10
		c-0.8,0-1.5-0.2-2.2-0.5c0,0,0,0,0,0.1c0,2.1,1.7,3.9,3.9,4.2c-0.4,0.1-0.8,0.2-1.3,0.2c-0.3,0-0.6,0-0.9-0.1c0.6,1.7,2.4,3,4.5,3
		c-1.7,1.2-3.8,1.9-6,1.9c-0.4,0-0.8,0-1.2-0.1c2.2,1.2,4.7,1.9,7.5,1.9c8.9,0,13.8-6.6,13.8-12.3c0-0.2,0-0.4,0-0.6
		C22.4,7.1,23.2,6.3,23.9,5.5L23.9,5.5z"/>
</g>
</svg>
