<?xml version="1.0" encoding="utf-8"?>
<!-- Generator: Adobe Illustrator 24.3.0, SVG Export Plug-In . SVG Version: 6.00 Build 0)  -->
<svg version="1.1" id="Layer_1" xmlns="http://www.w3.org/2000/svg" xmlns:xlink="http://www.w3.org/1999/xlink" x="0px" y="0px"
	 viewBox="0 0 24 24" style="enable-background:new 0 0 24 24;" xml:space="preserve">
<style type="text/css">
	.st0{fill:#11698E;}
</style>
<path class="st0" d="M24,9.5L21.4,0l-9.8,2.6L10.1,5L7.2,5L0,12l7.2,7l2.9,0l1.5,2.5l9.8,2.6l2.6-9.5L22.5,12L24,9.5z M10.4,5.4
	l7.5-1.9l-4.3,7.3H4.9C4.9,10.8,10.4,5.4,10.4,5.4z M10.4,18.6l-5.4-5.4h8.6l4.3,7.3L10.4,18.6L10.4,18.6z M20,19.3L15.6,12L20,4.7
	L22,12L20,19.3L20,19.3z"/>
</svg>
